<svg width="500" height="333" xmlns="http://www.w3.org/2000/svg" xmlns:xlink="http://www.w3.org/1999/xlink" overflow="hidden"><defs><clipPath id="clip0"><rect x="0" y="0" width="500" height="333"/></clipPath></defs><g clip-path="url(#clip0)"><path d="M0 0 0 333 166.5 333 166.5 0 0 0" fill="#007A5E" fill-rule="nonzero" fill-opacity="1" transform="scale(1.001 1)"/><path d="M275.848 202.42 249.75 183.46 223.652 202.42 233.62 171.741 207.523 152.779 239.782 152.779 249.75 122.1 259.719 152.779 291.977 152.779 265.88 171.741ZM166.5 0 166.5 333 333 333 333 0 166.5 0" fill="#CE1126" fill-rule="nonzero" fill-opacity="1" transform="scale(1.001 1)"/><path d="M333 0 333 333 499.5 333 499.5 0 333 0" fill="#FCD116" fill-rule="nonzero" fill-opacity="1" transform="scale(1.001 1)"/><path d="M249.75 122.1 239.782 152.779 245.13 152.779Z" fill="#FCD116" fill-rule="nonzero" fill-opacity="1" transform="scale(1.001 1)"/><path d="M259.719 152.779 249.75 122.1 254.37 152.779Z" fill="#FCD116" fill-rule="nonzero" fill-opacity="1" transform="scale(1.001 1)"/><path d="M247.576 152.779 254.37 152.779 249.75 122.1 245.13 152.779 247.576 152.779" fill="#FCD116" fill-rule="nonzero" fill-opacity="1" transform="scale(1.001 1)"/><path d="M291.977 152.779 259.719 152.779 261.371 157.865Z" fill="#FCD116" fill-rule="nonzero" fill-opacity="1" transform="scale(1.001 1)"/><path d="M255.289 158.876 261.371 157.865 259.719 152.779 254.37 152.779 255.289 158.876" fill="#FCD116" fill-rule="nonzero" fill-opacity="1" transform="scale(1.001 1)"/><path d="M252.234 159.383 252.976 158.362 253.405 159.19 255.289 158.876 254.37 152.779 251.922 152.779 251.922 159.435 252.234 159.383" fill="#FCD116" fill-rule="nonzero" fill-opacity="1" transform="scale(1.001 1)"/><path d="M264.226 166.655 265.88 171.741 291.977 152.779Z" fill="#FCD116" fill-rule="nonzero" fill-opacity="1" transform="scale(1.001 1)"/><path d="M262.127 160.194 264.226 166.655 291.977 152.779 261.371 157.865 262.127 160.194" fill="#FCD116" fill-rule="nonzero" fill-opacity="1" transform="scale(1.001 1)"/><path d="M256.492 160.917 255.751 161.938 255.797 162.25 262.127 160.194 261.371 157.865 255.289 158.876 255.574 160.765 256.492 160.917" fill="#FCD116" fill-rule="nonzero" fill-opacity="1" transform="scale(1.001 1)"/><path d="M252.234 159.383 251.922 159.435 251.922 159.811Z" fill="#FCD116" fill-rule="nonzero" fill-opacity="1" transform="scale(1.001 1)"/><path d="M254.096 160.519 255.574 160.765 255.289 158.876 253.405 159.19 254.096 160.519" fill="#FCD116" fill-rule="nonzero" fill-opacity="1" transform="scale(1.001 1)"/><path d="M255.797 162.25 255.751 161.938 255.44 162.366Z" fill="#FCD116" fill-rule="nonzero" fill-opacity="1" transform="scale(1.001 1)"/><path d="M275.848 202.42 265.88 171.741 261.553 174.884Z" fill="#FCD116" fill-rule="nonzero" fill-opacity="1" transform="scale(1.001 1)"/><path d="M258.712 169.412 261.553 174.884 265.88 171.741 264.226 166.655 258.712 169.412" fill="#FCD116" fill-rule="nonzero" fill-opacity="1" transform="scale(1.001 1)"/><path d="M262.127 160.194 263.471 164.326 257.14 166.384 257.285 166.664 258.486 167.053 257.832 167.718 258.712 169.412 264.226 166.655 262.127 160.194" fill="#FCD116" fill-rule="nonzero" fill-opacity="1" transform="scale(1.001 1)"/><path d="M256.125 164.428 257.14 166.384 263.471 164.326 262.127 160.194 255.797 162.25 256.125 164.428" fill="#FCD116" fill-rule="nonzero" fill-opacity="1" transform="scale(1.001 1)"/><path d="M255.215 162.676 256.125 164.428 255.797 162.25 255.44 162.366 255.215 162.676" fill="#FCD116" fill-rule="nonzero" fill-opacity="1" transform="scale(1.001 1)"/><path d="M249.75 183.46 275.848 202.42 254.076 180.316Z" fill="#FCD116" fill-rule="nonzero" fill-opacity="1" transform="scale(1.001 1)"/><path d="M252.976 158.362 252.234 159.383 253.405 159.19Z" fill="#FCD116" fill-rule="nonzero" fill-opacity="1" transform="scale(1.001 1)"/><path d="M251.922 160.157 254.096 160.519 253.405 159.19 252.234 159.383 251.922 159.811 251.922 160.157" fill="#FCD116" fill-rule="nonzero" fill-opacity="1" transform="scale(1.001 1)"/><path d="M259.572 176.322 254.076 180.316 275.848 202.42 261.553 174.884 259.572 176.322" fill="#FCD116" fill-rule="nonzero" fill-opacity="1" transform="scale(1.001 1)"/><path d="M257.142 171.187 255.943 170.796 255.661 170.938 259.572 176.322 261.553 174.884 258.712 169.412 257.004 170.266 257.142 171.187" fill="#FCD116" fill-rule="nonzero" fill-opacity="1" transform="scale(1.001 1)"/><path d="M257.142 171.187 257.004 170.266 255.943 170.796Z" fill="#FCD116" fill-rule="nonzero" fill-opacity="1" transform="scale(1.001 1)"/><path d="M257.285 166.664 257.14 166.384 256.782 166.5Z" fill="#FCD116" fill-rule="nonzero" fill-opacity="1" transform="scale(1.001 1)"/><path d="M255.661 170.938 255.943 170.796 255.44 170.634Z" fill="#FCD116" fill-rule="nonzero" fill-opacity="1" transform="scale(1.001 1)"/><path d="M256.781 168.784 257.004 170.266 258.712 169.412 257.832 167.718 256.781 168.784" fill="#FCD116" fill-rule="nonzero" fill-opacity="1" transform="scale(1.001 1)"/><path d="M255.44 170.634 255.943 170.796 257.004 170.266 256.781 168.784 255.237 170.353 255.44 170.634" fill="#FCD116" fill-rule="nonzero" fill-opacity="1" transform="scale(1.001 1)"/><path d="M256.419 166.382 256.782 166.5 257.14 166.384 256.125 164.428 256.419 166.382" fill="#FCD116" fill-rule="nonzero" fill-opacity="1" transform="scale(1.001 1)"/><path d="M253.266 165.358 256.419 166.382 256.125 164.428 255.215 162.676 253.266 165.358" fill="#FCD116" fill-rule="nonzero" fill-opacity="1" transform="scale(1.001 1)"/><path d="M223.652 202.42 249.75 183.46 245.424 180.316Z" fill="#FCD116" fill-rule="nonzero" fill-opacity="1" transform="scale(1.001 1)"/><path d="M249.75 175.924 245.424 180.316 249.75 183.46 254.076 180.316 249.75 175.924" fill="#FCD116" fill-rule="nonzero" fill-opacity="1" transform="scale(1.001 1)"/><path d="M252.145 173.492 251.922 173.717 251.922 174.98 251.09 174.564 249.75 175.924 254.076 180.316 259.572 176.322 256.056 178.877 252.145 173.492" fill="#FCD116" fill-rule="nonzero" fill-opacity="1" transform="scale(1.001 1)"/><path d="M253.69 171.923 252.145 173.492 256.056 178.877 259.572 176.322 255.661 170.938 253.69 171.923" fill="#FCD116" fill-rule="nonzero" fill-opacity="1" transform="scale(1.001 1)"/><path d="M255.077 170.516 253.69 171.923 255.661 170.938 255.44 170.634 255.077 170.516" fill="#FCD116" fill-rule="nonzero" fill-opacity="1" transform="scale(1.001 1)"/><path d="M255.44 170.634 255.237 170.353 255.077 170.516Z" fill="#FCD116" fill-rule="nonzero" fill-opacity="1" transform="scale(1.001 1)"/><path d="M233.62 171.741 223.652 202.42 237.947 174.884Z" fill="#FCD116" fill-rule="nonzero" fill-opacity="1" transform="scale(1.001 1)"/><path d="M258.486 167.053 257.285 166.664 257.832 167.718Z" fill="#FCD116" fill-rule="nonzero" fill-opacity="1" transform="scale(1.001 1)"/><path d="M256.453 166.607 256.781 168.784 257.832 167.718 257.285 166.664 256.782 166.5 256.453 166.607" fill="#FCD116" fill-rule="nonzero" fill-opacity="1" transform="scale(1.001 1)"/><path d="M253.266 167.642 255.237 170.353 256.781 168.784 256.453 166.607 253.266 167.642" fill="#FCD116" fill-rule="nonzero" fill-opacity="1" transform="scale(1.001 1)"/><path d="M256.782 166.5 256.419 166.382 256.453 166.607Z" fill="#FCD116" fill-rule="nonzero" fill-opacity="1" transform="scale(1.001 1)"/><path d="M252.436 166.5 253.266 167.642 256.453 166.607 256.419 166.382 253.266 165.358 252.436 166.5" fill="#FCD116" fill-rule="nonzero" fill-opacity="1" transform="scale(1.001 1)"/><path d="M239.928 176.322 237.947 174.884 223.652 202.42 245.424 180.316 239.928 176.322" fill="#FCD116" fill-rule="nonzero" fill-opacity="1" transform="scale(1.001 1)"/><path d="M247.576 174.98 247.576 173.717 247.355 173.492 243.444 178.877 239.928 176.322 245.424 180.316 249.75 175.924 248.41 174.564 247.576 174.98" fill="#FCD116" fill-rule="nonzero" fill-opacity="1" transform="scale(1.001 1)"/><path d="M247.576 174.98 248.41 174.564 247.576 173.717Z" fill="#FCD116" fill-rule="nonzero" fill-opacity="1" transform="scale(1.001 1)"/><path d="M251.922 173.717 252.145 173.492 251.922 173.189Z" fill="#FCD116" fill-rule="nonzero" fill-opacity="1" transform="scale(1.001 1)"/><path d="M247.355 173.492 247.576 173.717 247.576 173.189Z" fill="#FCD116" fill-rule="nonzero" fill-opacity="1" transform="scale(1.001 1)"/><path d="M249.75 173.892 248.41 174.564 249.75 175.924 251.09 174.564 249.75 173.892" fill="#FCD116" fill-rule="nonzero" fill-opacity="1" transform="scale(1.001 1)"/><path d="M247.576 173.189 247.576 173.717 248.41 174.564 249.75 173.892 247.781 172.908 247.576 173.189" fill="#FCD116" fill-rule="nonzero" fill-opacity="1" transform="scale(1.001 1)"/><path d="M251.922 173.189 252.145 173.492 253.69 171.923 251.922 172.806 251.922 173.189" fill="#FCD116" fill-rule="nonzero" fill-opacity="1" transform="scale(1.001 1)"/><path d="M251.922 169.49 251.922 172.806 253.69 171.923 255.077 170.516 251.922 169.49" fill="#FCD116" fill-rule="nonzero" fill-opacity="1" transform="scale(1.001 1)"/><path d="M251.922 169.49 255.077 170.516 255.237 170.353 253.266 167.642 251.922 168.079 251.922 169.49" fill="#FCD116" fill-rule="nonzero" fill-opacity="1" transform="scale(1.001 1)"/><path d="M251.922 167.206 251.922 168.079 253.266 167.642 252.436 166.5 251.922 167.206" fill="#FCD116" fill-rule="nonzero" fill-opacity="1" transform="scale(1.001 1)"/><path d="M207.523 152.779 233.62 171.741 235.274 166.655Z" fill="#FCD116" fill-rule="nonzero" fill-opacity="1" transform="scale(1.001 1)"/><path d="M256.492 160.917 255.574 160.765 255.751 161.938Z" fill="#FCD116" fill-rule="nonzero" fill-opacity="1" transform="scale(1.001 1)"/><path d="M255.44 162.366 255.751 161.938 255.574 160.765 254.096 160.519 255.111 162.473 255.44 162.366" fill="#FCD116" fill-rule="nonzero" fill-opacity="1" transform="scale(1.001 1)"/><path d="M255.44 162.366 255.111 162.473 255.215 162.676Z" fill="#FCD116" fill-rule="nonzero" fill-opacity="1" transform="scale(1.001 1)"/><path d="M251.922 163.51 255.111 162.473 254.096 160.519 251.922 160.157 251.922 163.51" fill="#FCD116" fill-rule="nonzero" fill-opacity="1" transform="scale(1.001 1)"/><path d="M253.266 165.358 255.215 162.676 255.111 162.473 251.922 163.51 251.922 164.921 253.266 165.358" fill="#FCD116" fill-rule="nonzero" fill-opacity="1" transform="scale(1.001 1)"/><path d="M240.788 169.412 235.274 166.655 233.62 171.741 237.947 174.884 240.788 169.412" fill="#FCD116" fill-rule="nonzero" fill-opacity="1" transform="scale(1.001 1)"/><path d="M251.922 165.794 252.436 166.5 253.266 165.358 251.922 164.921 251.922 165.794" fill="#FCD116" fill-rule="nonzero" fill-opacity="1" transform="scale(1.001 1)"/><path d="M243.557 170.796 242.356 171.187 242.496 170.266 240.788 169.412 237.947 174.884 239.928 176.322 243.839 170.938 243.557 170.796" fill="#FCD116" fill-rule="nonzero" fill-opacity="1" transform="scale(1.001 1)"/><path d="M242.356 171.187 243.557 170.796 242.496 170.266Z" fill="#FCD116" fill-rule="nonzero" fill-opacity="1" transform="scale(1.001 1)"/><path d="M247.355 173.492 245.81 171.923 243.839 170.938 239.928 176.322 243.444 178.877 247.355 173.492" fill="#FCD116" fill-rule="nonzero" fill-opacity="1" transform="scale(1.001 1)"/><path d="M247.576 172.806 245.81 171.923 247.355 173.492 247.576 173.189 247.576 172.806" fill="#FCD116" fill-rule="nonzero" fill-opacity="1" transform="scale(1.001 1)"/><path d="M247.576 173.189 247.781 172.908 247.576 172.806Z" fill="#FCD116" fill-rule="nonzero" fill-opacity="1" transform="scale(1.001 1)"/><path d="M251.922 167.206 252.436 166.5 251.922 165.794Z" fill="#FCD116" fill-rule="nonzero" fill-opacity="1" transform="scale(1.001 1)"/><path d="M239.782 152.779 207.523 152.779 238.129 157.865Z" fill="#FCD116" fill-rule="nonzero" fill-opacity="1" transform="scale(1.001 1)"/><path d="M244.211 158.876 245.13 152.779 239.782 152.779 238.129 157.865 244.211 158.876" fill="#FCD116" fill-rule="nonzero" fill-opacity="1" transform="scale(1.001 1)"/><path d="M246.524 158.362 247.266 159.383 247.576 159.435 247.576 152.779 245.13 152.779 244.211 158.876 246.095 159.19 246.524 158.362" fill="#FCD116" fill-rule="nonzero" fill-opacity="1" transform="scale(1.001 1)"/><path d="M249.75 159.797 251.922 159.435 251.922 152.779 247.576 152.779 247.576 159.435 249.75 159.797" fill="#FCD116" fill-rule="nonzero" fill-opacity="1" transform="scale(1.001 1)"/><path d="M251.922 159.811 251.922 159.435 249.75 159.797 251.699 160.121 251.922 159.811" fill="#FCD116" fill-rule="nonzero" fill-opacity="1" transform="scale(1.001 1)"/><path d="M251.922 159.811 251.699 160.121 251.922 160.157Z" fill="#FCD116" fill-rule="nonzero" fill-opacity="1" transform="scale(1.001 1)"/><path d="M246.524 158.362 246.095 159.19 247.266 159.383Z" fill="#FCD116" fill-rule="nonzero" fill-opacity="1" transform="scale(1.001 1)"/><path d="M251.922 174.98 251.922 173.717 251.09 174.564Z" fill="#FCD116" fill-rule="nonzero" fill-opacity="1" transform="scale(1.001 1)"/><path d="M251.719 172.908 249.75 173.892 251.09 174.564 251.922 173.717 251.922 173.189 251.719 172.908" fill="#FCD116" fill-rule="nonzero" fill-opacity="1" transform="scale(1.001 1)"/><path d="M249.75 170.197 247.781 172.908 249.75 173.892 251.719 172.908 249.75 170.197" fill="#FCD116" fill-rule="nonzero" fill-opacity="1" transform="scale(1.001 1)"/><path d="M251.922 173.189 251.922 172.806 251.719 172.908Z" fill="#FCD116" fill-rule="nonzero" fill-opacity="1" transform="scale(1.001 1)"/><path d="M249.75 170.197 251.719 172.908 251.922 172.806 251.922 169.49 250.58 169.055 249.75 170.197" fill="#FCD116" fill-rule="nonzero" fill-opacity="1" transform="scale(1.001 1)"/><path d="M251.092 168.348 250.58 169.055 251.922 169.49 251.922 168.079 251.092 168.348" fill="#FCD116" fill-rule="nonzero" fill-opacity="1" transform="scale(1.001 1)"/><path d="M251.922 168.079 251.922 167.206 251.092 168.348Z" fill="#FCD116" fill-rule="nonzero" fill-opacity="1" transform="scale(1.001 1)"/><path d="M237.373 160.194 238.129 157.865 207.523 152.779 235.274 166.655 237.373 160.194" fill="#FCD116" fill-rule="nonzero" fill-opacity="1" transform="scale(1.001 1)"/><path d="M243.749 161.938 243.008 160.917 243.926 160.765 244.211 158.876 238.129 157.865 237.373 160.194 243.703 162.25 243.749 161.938" fill="#FCD116" fill-rule="nonzero" fill-opacity="1" transform="scale(1.001 1)"/><path d="M245.404 160.519 246.095 159.19 244.211 158.876 243.926 160.765 245.404 160.519" fill="#FCD116" fill-rule="nonzero" fill-opacity="1" transform="scale(1.001 1)"/><path d="M243.749 161.938 243.703 162.25 244.06 162.366Z" fill="#FCD116" fill-rule="nonzero" fill-opacity="1" transform="scale(1.001 1)"/><path d="M247.576 159.435 247.266 159.383 247.576 159.811Z" fill="#FCD116" fill-rule="nonzero" fill-opacity="1" transform="scale(1.001 1)"/><path d="M247.801 160.121 249.75 159.797 247.576 159.435 247.576 159.811 247.801 160.121" fill="#FCD116" fill-rule="nonzero" fill-opacity="1" transform="scale(1.001 1)"/><path d="M243.008 160.917 243.749 161.938 243.926 160.765Z" fill="#FCD116" fill-rule="nonzero" fill-opacity="1" transform="scale(1.001 1)"/><path d="M244.389 162.473 245.404 160.519 243.926 160.765 243.749 161.938 244.06 162.366 244.389 162.473" fill="#FCD116" fill-rule="nonzero" fill-opacity="1" transform="scale(1.001 1)"/><path d="M249.75 162.803 251.699 160.121 249.75 159.797 247.801 160.121 249.75 162.803" fill="#FCD116" fill-rule="nonzero" fill-opacity="1" transform="scale(1.001 1)"/><path d="M251.922 163.51 251.922 160.157 251.699 160.121 249.75 162.803 250.58 163.945 251.922 163.51" fill="#FCD116" fill-rule="nonzero" fill-opacity="1" transform="scale(1.001 1)"/><path d="M251.092 164.652 251.922 164.921 251.922 163.51 250.58 163.945 251.092 164.652" fill="#FCD116" fill-rule="nonzero" fill-opacity="1" transform="scale(1.001 1)"/><path d="M247.576 159.811 247.266 159.383 246.095 159.19 245.404 160.519 247.576 160.157 247.576 159.811" fill="#FCD116" fill-rule="nonzero" fill-opacity="1" transform="scale(1.001 1)"/><path d="M247.576 159.811 247.576 160.157 247.801 160.121Z" fill="#FCD116" fill-rule="nonzero" fill-opacity="1" transform="scale(1.001 1)"/><path d="M247.576 163.51 247.576 160.157 245.404 160.519 244.389 162.473 247.576 163.51" fill="#FCD116" fill-rule="nonzero" fill-opacity="1" transform="scale(1.001 1)"/><path d="M249.75 162.803 247.801 160.121 247.576 160.157 247.576 163.51 248.92 163.945 249.75 162.803" fill="#FCD116" fill-rule="nonzero" fill-opacity="1" transform="scale(1.001 1)"/><path d="M249.75 164.215 250.58 163.945 249.75 162.803 248.92 163.945 249.75 164.215" fill="#FCD116" fill-rule="nonzero" fill-opacity="1" transform="scale(1.001 1)"/><path d="M250.58 163.945 249.75 164.215 251.092 164.652Z" fill="#FCD116" fill-rule="nonzero" fill-opacity="1" transform="scale(1.001 1)"/><path d="M241.014 167.053 242.215 166.664 242.36 166.384 236.029 164.326 237.373 160.194 235.274 166.655 240.788 169.412 241.668 167.718 241.014 167.053" fill="#FCD116" fill-rule="nonzero" fill-opacity="1" transform="scale(1.001 1)"/><path d="M242.36 166.384 243.375 164.428 243.703 162.25 237.373 160.194 236.029 164.326 242.36 166.384" fill="#FCD116" fill-rule="nonzero" fill-opacity="1" transform="scale(1.001 1)"/><path d="M244.06 162.366 243.703 162.25 243.375 164.428 244.285 162.676 244.06 162.366" fill="#FCD116" fill-rule="nonzero" fill-opacity="1" transform="scale(1.001 1)"/><path d="M244.06 162.366 244.285 162.676 244.389 162.473Z" fill="#FCD116" fill-rule="nonzero" fill-opacity="1" transform="scale(1.001 1)"/><path d="M241.014 167.053 241.668 167.718 242.215 166.664Z" fill="#FCD116" fill-rule="nonzero" fill-opacity="1" transform="scale(1.001 1)"/><path d="M251.922 164.921 251.092 164.652 251.922 165.794Z" fill="#FCD116" fill-rule="nonzero" fill-opacity="1" transform="scale(1.001 1)"/><path d="M242.36 166.384 242.215 166.664 242.718 166.5Z" fill="#FCD116" fill-rule="nonzero" fill-opacity="1" transform="scale(1.001 1)"/><path d="M243.557 170.796 243.839 170.938 244.06 170.634Z" fill="#FCD116" fill-rule="nonzero" fill-opacity="1" transform="scale(1.001 1)"/><path d="M242.719 168.784 241.668 167.718 240.788 169.412 242.496 170.266 242.719 168.784" fill="#FCD116" fill-rule="nonzero" fill-opacity="1" transform="scale(1.001 1)"/><path d="M243.081 166.382 243.375 164.428 242.36 166.384 242.718 166.5 243.081 166.382" fill="#FCD116" fill-rule="nonzero" fill-opacity="1" transform="scale(1.001 1)"/><path d="M244.265 170.353 242.719 168.784 242.496 170.266 243.557 170.796 244.06 170.634 244.265 170.353" fill="#FCD116" fill-rule="nonzero" fill-opacity="1" transform="scale(1.001 1)"/><path d="M246.234 165.358 244.285 162.676 243.375 164.428 243.081 166.382 246.234 165.358" fill="#FCD116" fill-rule="nonzero" fill-opacity="1" transform="scale(1.001 1)"/><path d="M247.576 163.51 244.389 162.473 244.285 162.676 246.234 165.358 247.576 164.921 247.576 163.51" fill="#FCD116" fill-rule="nonzero" fill-opacity="1" transform="scale(1.001 1)"/><path d="M248.408 164.652 248.92 163.945 247.576 163.51 247.576 164.921 248.408 164.652" fill="#FCD116" fill-rule="nonzero" fill-opacity="1" transform="scale(1.001 1)"/><path d="M242.718 166.5 242.215 166.664 241.668 167.718 242.719 168.784 243.047 166.607 242.718 166.5" fill="#FCD116" fill-rule="nonzero" fill-opacity="1" transform="scale(1.001 1)"/><path d="M242.718 166.5 243.047 166.607 243.081 166.382Z" fill="#FCD116" fill-rule="nonzero" fill-opacity="1" transform="scale(1.001 1)"/><path d="M246.234 167.642 243.047 166.607 242.719 168.784 244.265 170.353 246.234 167.642" fill="#FCD116" fill-rule="nonzero" fill-opacity="1" transform="scale(1.001 1)"/><path d="M246.234 165.358 243.081 166.382 243.047 166.607 246.234 167.642 247.064 166.5 246.234 165.358" fill="#FCD116" fill-rule="nonzero" fill-opacity="1" transform="scale(1.001 1)"/><path d="M247.576 165.794 247.576 164.921 246.234 165.358 247.064 166.5 247.576 165.794" fill="#FCD116" fill-rule="nonzero" fill-opacity="1" transform="scale(1.001 1)"/><path d="M247.576 164.921 247.576 165.794 248.408 164.652Z" fill="#FCD116" fill-rule="nonzero" fill-opacity="1" transform="scale(1.001 1)"/><path d="M244.06 170.634 243.839 170.938 245.81 171.923 244.423 170.516 244.06 170.634" fill="#FCD116" fill-rule="nonzero" fill-opacity="1" transform="scale(1.001 1)"/><path d="M244.06 170.634 244.423 170.516 244.265 170.353Z" fill="#FCD116" fill-rule="nonzero" fill-opacity="1" transform="scale(1.001 1)"/><path d="M248.92 163.945 248.408 164.652 249.75 164.215Z" fill="#FCD116" fill-rule="nonzero" fill-opacity="1" transform="scale(1.001 1)"/><path d="M247.576 169.49 244.423 170.516 245.81 171.923 247.576 172.806 247.576 169.49" fill="#FCD116" fill-rule="nonzero" fill-opacity="1" transform="scale(1.001 1)"/><path d="M246.234 167.642 244.265 170.353 244.423 170.516 247.576 169.49 247.576 168.079 246.234 167.642" fill="#FCD116" fill-rule="nonzero" fill-opacity="1" transform="scale(1.001 1)"/><path d="M247.576 167.206 247.064 166.5 246.234 167.642 247.576 168.079 247.576 167.206" fill="#FCD116" fill-rule="nonzero" fill-opacity="1" transform="scale(1.001 1)"/><path d="M247.576 169.49 247.576 172.806 247.781 172.908 249.75 170.197 248.92 169.055 247.576 169.49" fill="#FCD116" fill-rule="nonzero" fill-opacity="1" transform="scale(1.001 1)"/><path d="M248.408 168.348 247.576 168.079 247.576 169.49 248.92 169.055 248.408 168.348" fill="#FCD116" fill-rule="nonzero" fill-opacity="1" transform="scale(1.001 1)"/><path d="M247.576 168.079 248.408 168.348 247.576 167.206Z" fill="#FCD116" fill-rule="nonzero" fill-opacity="1" transform="scale(1.001 1)"/><path d="M247.064 166.5 247.576 167.206 247.576 165.794Z" fill="#FCD116" fill-rule="nonzero" fill-opacity="1" transform="scale(1.001 1)"/><path d="M249.75 168.784 248.92 169.055 249.75 170.197 250.58 169.055 249.75 168.784" fill="#FCD116" fill-rule="nonzero" fill-opacity="1" transform="scale(1.001 1)"/><path d="M250.58 169.055 251.092 168.348 249.75 168.784Z" fill="#FCD116" fill-rule="nonzero" fill-opacity="1" transform="scale(1.001 1)"/><path d="M248.92 169.055 249.75 168.784 248.408 168.348Z" fill="#FCD116" fill-rule="nonzero" fill-opacity="1" transform="scale(1.001 1)"/><path d="M251.092 164.652 249.75 164.215 248.408 164.652 247.576 165.794 247.576 167.206 248.408 168.348 249.75 168.784 251.092 168.348 251.922 167.206 251.922 165.794 251.092 164.652" fill="#FCD116" fill-rule="nonzero" fill-opacity="1" transform="scale(1.001 1)"/></g></svg>