<svg width="500" height="341" xmlns="http://www.w3.org/2000/svg" xmlns:xlink="http://www.w3.org/1999/xlink" overflow="hidden"><defs><clipPath id="clip0"><rect x="0" y="0" width="500" height="341"/></clipPath></defs><g clip-path="url(#clip0)"><path d="M22.7273 102.273 522.727 102.273 522.727 443.182 22.7273 443.182Z" fill="#C62828" fill-rule="nonzero" fill-opacity="1" transform="matrix(1 0 0 1.00027 -22.7273 -102.3)"/><path d="M204.545 102.273 352.273 102.273 352.273 443.182 204.545 443.182Z" fill="#01579B" fill-rule="nonzero" fill-opacity="1" transform="matrix(1 0 0 1.00027 -22.7273 -102.3)"/><path d="M113.636 238.636C98.3977 238.636 85.2955 228.432 79.5568 215.307 79.5455 215.511 79.5455 215.705 79.5455 215.909 79.5455 234.739 94.8068 250 113.636 250 132.466 250 147.727 234.739 147.727 215.909 147.727 215.705 147.727 215.511 147.716 215.307 141.977 228.432 128.875 238.636 113.636 238.636Z" fill="#FFD600" fill-rule="nonzero" fill-opacity="1" transform="matrix(1 0 0 1.00027 -22.7273 -102.3)"/><path d="M113.636 181.818C101.084 181.818 90.9091 191.994 90.9091 204.545 90.9091 217.097 101.084 227.273 113.636 227.273 126.188 227.273 136.364 217.097 136.364 204.545 136.364 191.994 126.188 181.818 113.636 181.818ZM102.273 159.807C102.273 165.682 107.364 170.455 113.636 170.455 119.909 170.455 125 165.682 125 159.795 125 155.534 122.159 155 122.159 153.398 122.159 151.795 123.864 149.67 120.455 147 122.159 149.659 119.318 150.193 119.318 152.864 119.318 155.534 120.455 155.523 120.455 157.659 120.455 158.841 119.432 159.795 118.182 159.795 116.932 159.795 115.909 158.841 115.909 157.659 115.909 155.523 118.182 153.398 118.182 150.205 118.182 147.011 117.614 145.943 115.909 143.284 114.205 140.625 111.364 138.5 113.636 136.364 110.227 137.432 111.932 141.693 111.932 144.352 111.932 147.011 109.659 148.614 109.659 151.807 109.659 155 111.364 155.534 111.364 157.67 111.364 158.852 110.341 159.807 109.091 159.807 107.841 159.807 106.818 158.852 106.818 157.67 106.818 155.534 107.955 155.534 107.955 152.875 107.955 150.216 105.114 149.682 106.818 147.011 103.409 149.67 105.114 151.807 105.114 153.409 105.114 155.011 102.273 155.545 102.273 159.807ZM56.8182 261.364 79.5455 261.364 79.5455 397.727 56.8182 397.727ZM147.727 261.364 170.455 261.364 170.455 397.727 147.727 397.727ZM90.9091 363.898 136.364 363.898 136.364 375.261 90.9091 375.261ZM90.9091 284.091 136.364 284.091 136.364 295.455 90.9091 295.455ZM90.9091 386.625 136.364 386.625 113.636 397.989ZM90.9091 261.364 136.364 261.364 113.636 272.727ZM113.636 307.08C101.102 307.08 90.9091 317.273 90.9091 329.807 90.9091 338.432 95.7386 345.955 102.852 349.807 101.205 347.58 100.227 344.83 100.227 341.852 100.227 334.455 106.239 328.443 113.636 328.443 119.523 328.443 124.318 323.648 124.318 317.761 124.318 311.875 119.523 307.08 113.636 307.08ZM113.636 322.307C111.125 322.307 109.091 320.273 109.091 317.761 109.091 315.25 111.125 313.216 113.636 313.216 116.148 313.216 118.182 315.25 118.182 317.761 118.182 320.273 116.148 322.307 113.636 322.307Z" fill="#FFD600" fill-rule="nonzero" fill-opacity="1" transform="matrix(1 0 0 1.00027 -22.7273 -102.3)"/><path d="M124.42 309.807C126.068 312.034 127.045 314.784 127.045 317.761 127.045 325.159 121.034 331.17 113.636 331.17 107.75 331.17 102.955 335.966 102.955 341.852 102.955 347.739 107.75 352.534 113.636 352.534 126.17 352.534 136.364 342.341 136.364 329.807 136.364 321.17 131.534 313.648 124.42 309.807ZM113.636 346.648C111.125 346.648 109.091 344.614 109.091 342.102 109.091 339.591 111.125 337.557 113.636 337.557 116.148 337.557 118.182 339.591 118.182 342.102 118.182 344.614 116.148 346.648 113.636 346.648Z" fill="#FFD600" fill-rule="nonzero" fill-opacity="1" transform="matrix(1 0 0 1.00027 -22.7273 -102.3)"/></g></svg>