<?xml version="1.0" encoding="UTF-8"?><svg xmlns="http://www.w3.org/2000/svg" xmlns:xlink="http://www.w3.org/1999/xlink" width="375" zoomAndPan="magnify" viewBox="0 0 375 374.999991" height="374.999991" preserveAspectRatio="xMidYMid meet" version="1.0"><defs><clipPath id="clip-0"><path d="M 123 18.585938 L 315 18.585938 L 315 337.335938 L 123 337.335938 Z M 123 18.585938 " clip-rule="nonzero"/></clipPath><clipPath id="clip-1"><path d="M 37.5 173 L 152 173 L 152 261 L 37.5 261 Z M 37.5 173 " clip-rule="nonzero"/></clipPath></defs><path fill="rgb(100%, 100%, 100%)" d="M 187.5 0 C 83.945312 0 0 83.945312 0 187.5 C 0 291.054688 83.945312 375 187.5 375 C 291.054688 375 375 291.054688 375 187.5 C 375 83.945312 291.054688 0 187.5 0 Z M 187.5 0 " fill-opacity="1" fill-rule="nonzero"/><g clip-path="url(#clip-0)"><path fill="rgb(28.62854%, 72.158813%, 66.268921%)" d="M 292.910156 337.167969 C 292.910156 337.167969 291.082031 336.292969 287.65625 334.648438 C 285.953125 333.808594 283.875 332.726562 281.433594 331.476562 C 279.03125 330.152344 276.234375 328.695312 273.210938 326.902344 C 267.121094 323.378906 259.898438 318.851562 252.046875 313.179688 C 244.183594 307.511719 235.6875 300.699219 227.070312 292.679688 C 222.757812 288.679688 218.398438 284.390625 214.09375 279.792969 C 211.902344 277.519531 209.816406 275.117188 207.648438 272.71875 C 205.542969 270.273438 203.382812 267.816406 201.304688 265.238281 C 199.179688 262.699219 197.140625 260.046875 195.050781 257.390625 C 193.023438 254.6875 190.949219 251.976562 188.964844 249.164062 C 184.957031 243.570312 181.039062 237.761719 177.300781 231.738281 C 173.550781 225.726562 169.929688 219.527344 166.472656 213.175781 C 163.03125 206.8125 159.742188 200.304688 156.617188 193.679688 C 155.855469 192.035156 155.035156 190.332031 154.316406 188.730469 C 153.582031 187.117188 152.851562 185.5 152.117188 183.878906 C 150.648438 180.609375 149.179688 177.34375 147.730469 174.011719 C 144.824219 167.371094 141.964844 160.621094 139.304688 153.722656 C 136.636719 146.828125 134.097656 139.839844 131.910156 132.691406 C 129.707031 125.554688 127.730469 118.328125 126.292969 110.953125 C 124.835938 103.597656 123.71875 96.171875 123.386719 88.679688 C 123.339844 87.746094 123.253906 86.828125 123.238281 85.890625 C 123.230469 84.953125 123.226562 84.015625 123.21875 83.082031 C 123.214844 82.148438 123.214844 81.214844 123.210938 80.289062 L 123.210938 78.890625 L 123.269531 77.402344 C 123.453125 73.441406 123.960938 69.589844 124.742188 65.855469 C 126.316406 58.390625 128.957031 51.367188 132.5625 44.996094 C 136.167969 38.640625 140.800781 32.925781 146.386719 28.460938 C 151.941406 23.984375 158.488281 20.914062 165.050781 19.632812 C 168.332031 18.96875 171.597656 18.742188 174.734375 18.867188 C 177.886719 18.964844 180.996094 19.433594 183.910156 20.203125 C 189.765625 21.734375 194.8125 24.566406 198.980469 27.785156 C 201.0625 29.417969 202.917969 31.175781 204.597656 32.96875 C 206.277344 34.769531 207.726562 36.648438 209.054688 38.503906 C 214.246094 46.039062 216.863281 53.507812 218.253906 59.675781 C 218.945312 62.773438 219.335938 65.566406 219.59375 67.996094 C 219.804688 70.429688 219.894531 72.496094 219.902344 74.167969 C 219.898438 75.003906 219.894531 75.742188 219.890625 76.382812 C 219.863281 77.015625 219.835938 77.550781 219.820312 77.984375 C 219.78125 78.839844 219.757812 79.285156 219.757812 79.285156 C 219.757812 79.285156 219.71875 78.84375 219.644531 77.984375 C 219.609375 77.558594 219.558594 77.023438 219.503906 76.394531 C 219.425781 75.769531 219.332031 75.039062 219.226562 74.21875 C 219 72.578125 218.640625 70.5625 218.121094 68.234375 C 217.558594 65.910156 216.820312 63.273438 215.769531 60.410156 C 213.675781 54.710938 210.230469 48.054688 204.707031 41.964844 C 203.296875 40.476562 201.804688 38.992188 200.144531 37.632812 C 198.480469 36.277344 196.707031 34.992188 194.792969 33.871094 C 190.957031 31.660156 186.625 29.976562 182.015625 29.425781 C 179.710938 29.140625 177.375 29.109375 174.996094 29.355469 C 172.597656 29.578125 170.234375 30.078125 167.957031 30.878906 C 163.402344 32.445312 159.222656 35.164062 155.722656 38.859375 C 148.703125 46.226562 144.417969 57.320312 143.605469 68.683594 C 143.398438 71.523438 143.417969 74.375 143.675781 77.167969 L 143.773438 78.214844 L 143.929688 79.351562 L 144.25 81.640625 L 144.566406 83.929688 C 144.683594 84.691406 144.863281 85.460938 145.007812 86.226562 C 146.09375 92.347656 147.894531 98.515625 149.984375 104.652344 C 152.054688 110.796875 154.636719 116.910156 157.4375 122.980469 C 160.222656 129.054688 163.363281 135.074219 166.648438 141.058594 C 169.925781 147.042969 173.425781 152.972656 177.007812 158.890625 C 178.789062 161.839844 180.628906 164.796875 182.449219 167.746094 C 183.375 169.222656 184.296875 170.699219 185.21875 172.175781 C 186.144531 173.667969 187.035156 175.015625 187.9375 176.4375 C 191.5625 182.042969 195.289062 187.484375 199.105469 192.726562 C 202.933594 197.960938 206.855469 202.992188 210.828125 207.804688 C 214.792969 212.625 218.855469 217.191406 222.929688 221.519531 C 224.949219 223.703125 227.03125 225.769531 229.050781 227.835938 C 231.128906 229.84375 233.144531 231.855469 235.214844 233.742188 C 237.246094 235.671875 239.328125 237.472656 241.347656 239.28125 C 243.417969 241.019531 245.414062 242.789062 247.453125 244.394531 C 251.472656 247.6875 255.480469 250.683594 259.386719 253.4375 C 267.191406 258.960938 274.652344 263.4375 281.398438 267.035156 C 288.136719 270.636719 294.15625 273.363281 299.160156 275.417969 C 301.644531 276.480469 303.917969 277.277344 305.863281 278.042969 C 307.839844 278.726562 309.503906 279.335938 310.859375 279.789062 C 313.585938 280.671875 315.042969 281.140625 315.042969 281.140625 C 315.042969 281.140625 314.148438 281.339844 312.585938 281.691406 C 311.011719 282.042969 308.742188 282.527344 306.003906 282.96875 C 300.523438 283.90625 293.0625 284.730469 285.484375 284.832031 C 277.917969 284.96875 270.269531 284.390625 264.546875 283.652344 C 261.671875 283.304688 259.292969 282.917969 257.628906 282.625 C 255.957031 282.332031 255 282.167969 255 282.167969 C 255 282.167969 255.476562 283.011719 256.308594 284.488281 C 257.136719 285.980469 258.339844 288.113281 259.855469 290.660156 C 262.855469 295.78125 267.09375 302.660156 271.800781 309.5625 C 276.484375 316.460938 281.664062 323.367188 285.800781 328.542969 C 287.851562 331.144531 289.644531 333.285156 290.910156 334.785156 C 292.183594 336.300781 292.910156 337.167969 292.910156 337.167969 " fill-opacity="1" fill-rule="nonzero"/></g><path fill="rgb(28.62854%, 72.158813%, 66.268921%)" d="M 195.589844 138.101562 C 196.351562 136.3125 197.101562 134.539062 197.847656 132.785156 C 198.507812 131.003906 199.160156 129.238281 199.804688 127.5 C 200.433594 125.757812 200.941406 123.992188 201.5 122.285156 C 203.589844 115.390625 205.019531 108.773438 205.96875 102.648438 C 206.847656 96.507812 207.339844 90.894531 207.523438 85.921875 C 207.632812 83.433594 207.617188 81.109375 207.660156 78.96875 C 207.617188 76.828125 207.582031 74.863281 207.546875 73.089844 C 207.386719 69.546875 207.246094 66.78125 207.074219 64.890625 C 206.933594 63.011719 206.859375 62.003906 206.859375 62.003906 C 206.859375 62.003906 206.753906 63.007812 206.566406 64.886719 C 206.402344 66.765625 206.050781 69.511719 205.59375 72.984375 C 205.320312 74.714844 205.015625 76.632812 204.683594 78.714844 C 204.273438 80.785156 203.890625 83.023438 203.355469 85.394531 C 202.335938 90.128906 200.898438 95.394531 199.058594 100.988281 C 197.144531 106.5625 194.722656 112.441406 191.703125 118.363281 C 190.914062 119.832031 190.179688 121.339844 189.328125 122.8125 C 188.464844 124.277344 187.597656 125.753906 186.71875 127.253906 C 185.769531 128.703125 184.8125 130.171875 183.84375 131.648438 C 182.894531 133.132812 181.78125 134.539062 180.75 135.996094 C 178.957031 138.414062 177.058594 140.792969 175.066406 143.132812 C 177.183594 146.839844 179.550781 150.855469 182.429688 155.605469 C 183.0625 156.648438 183.707031 157.6875 184.347656 158.726562 C 187.589844 153.691406 190.519531 148.570312 193.074219 143.433594 C 193.917969 141.632812 194.839844 139.902344 195.589844 138.101562 " fill-opacity="1" fill-rule="nonzero"/><g clip-path="url(#clip-1)"><path fill="rgb(28.62854%, 72.158813%, 66.268921%)" d="M 150.882812 196.382812 C 150.59375 195.761719 150.320312 195.171875 150.042969 194.585938 C 149.523438 193.484375 149.007812 192.382812 148.535156 191.328125 L 146.34375 186.492188 L 145.523438 184.671875 C 144.320312 181.980469 143.105469 179.277344 141.917969 176.535156 C 141.445312 175.453125 140.988281 174.410156 140.550781 173.386719 C 140.273438 173.570312 140.007812 173.753906 139.734375 173.929688 C 136.621094 176.089844 133.34375 178.039062 130.152344 180.011719 C 128.578125 181.019531 126.894531 181.898438 125.285156 182.832031 C 123.652344 183.75 122.066406 184.691406 120.433594 185.566406 C 118.792969 186.425781 117.164062 187.28125 115.546875 188.128906 C 113.929688 188.980469 112.339844 189.828125 110.699219 190.597656 C 104.242188 193.792969 97.882812 196.671875 91.78125 199.257812 C 88.699219 200.515625 85.753906 201.792969 82.839844 202.929688 C 79.921875 204.046875 77.101562 205.128906 74.394531 206.167969 C 71.679688 207.191406 69.027344 208.089844 66.542969 208.988281 C 64.042969 209.871094 61.691406 210.726562 59.425781 211.441406 C 57.179688 212.179688 55.074219 212.871094 53.132812 213.511719 C 51.191406 214.15625 49.402344 214.734375 47.765625 215.214844 C 41.257812 217.195312 37.535156 218.324219 37.535156 218.324219 C 37.535156 218.324219 39.890625 219.101562 43.429688 220.160156 C 46.957031 221.199219 51.714844 222.574219 56.390625 223.625 C 61.070312 224.695312 65.761719 225.601562 69.269531 226.191406 C 72.753906 226.730469 75.074219 227.015625 75.074219 227.015625 C 75.074219 227.015625 73.792969 229.007812 71.875 232 C 69.933594 234.976562 67.335938 239.027344 64.742188 243.253906 C 63.429688 245.375 62.125 247.496094 60.898438 249.480469 C 59.667969 251.515625 58.515625 253.414062 57.53125 255.039062 C 55.554688 258.382812 54.238281 260.613281 54.238281 260.613281 C 54.238281 260.613281 57.957031 258.714844 64.46875 255.394531 C 66.097656 254.582031 67.886719 253.628906 69.828125 252.574219 C 71.769531 251.527344 73.871094 250.398438 76.113281 249.1875 C 78.359375 248.007812 80.722656 246.648438 83.210938 245.226562 C 85.699219 243.792969 88.324219 242.347656 91.03125 240.734375 C 93.726562 239.109375 96.53125 237.414062 99.4375 235.660156 C 102.332031 233.890625 105.277344 231.945312 108.324219 230.015625 C 114.378906 226.066406 120.675781 221.738281 127.042969 217.035156 C 128.648438 215.894531 130.230469 214.65625 131.820312 213.421875 C 133.410156 212.1875 135.011719 210.945312 136.621094 209.695312 C 138.21875 208.429688 139.789062 207.082031 141.378906 205.769531 C 142.957031 204.433594 144.585938 203.171875 146.128906 201.746094 C 147.839844 200.222656 149.554688 198.707031 151.253906 197.15625 C 151.132812 196.898438 151.003906 196.640625 150.882812 196.382812 " fill-opacity="1" fill-rule="nonzero"/></g></svg>